# xmcd CD database file
#
# Track frame offsets:
#	150
#	19480
#	42195
#	58799
#	80676
#	112587
#
# Disc length: 2061 seconds
#
# Revision: 0
# Processed by: cddbd v1.5.1PL0 Copyright (c) Steve Scherf et al.
# Submitted via: CDex 1.51
#
DISCID=45080b06
DTITLE=Katrina Chester - Katrina Chester the EP
DYEAR=2004
DGENRE=Blues
TTITLE0=Katrina Chester - Believe
TTITLE1=Katrina Chester - Who's Lovin You
TTITLE2=Katrina Chester - Sweeter
TTITLE3=Katrina Chester - Blue
TTITLE4=Katrina Chester - Cracked
TTITLE5=Movies
EXTD=YEAR: 2004
EXTT0=
EXTT1=
EXTT2=
EXTT3=
EXTT4=
EXTT5=
PLAYORDER=
